<?xml version="1.0" encoding="UTF-8"?>
<svg version="1.1" xmlns="http://www.w3.org/2000/svg" width="1080" height="1080">
<path d="M0 0 C1.663512 0.68796032 3.30410723 1.43310636 4.921875 2.22265625 C5.85636475 2.67471436 6.79085449 3.12677246 7.75366211 3.5925293 C8.74245361 4.07761963 9.73124512 4.56270996 10.75 5.0625 C12.82918477 6.07081232 14.90861369 7.07862133 16.98828125 8.0859375 C18.01131348 8.58319336 19.0343457 9.08044922 20.08837891 9.59277344 C24.02150873 11.49370923 27.97770417 13.34296771 31.9375 15.1875 C37.9573212 18.00301609 43.90936611 20.93523643 49.84155273 23.93041992 C55.02288854 26.53662739 60.25163755 29.03191959 65.5 31.5 C71.32920888 34.24178335 77.12499024 37.03321809 82.875 39.9375 C89.0403713 43.05145021 95.25715628 46.04457542 101.5 49 C108.39109452 52.26231298 115.23768062 55.59395579 122.04296875 59.03125 C127.15708293 61.6038044 132.32018052 64.06283519 137.5 66.5 C143.6864747 69.41820784 149.86276033 72.35437146 156 75.375 C156.66451172 75.69662109 157.32902344 76.01824219 158.01367188 76.34960938 C161.17645626 77.91938589 163.59351277 79.43229974 166 82 C164.7788007 82.64742761 163.55740168 83.2944785 162.3359375 83.94140625 C161.5507373 84.3576123 160.76553711 84.77381836 159.95654297 85.20263672 C158.22224991 86.11619945 156.48421101 87.02268315 154.74267578 87.92236328 C150.8163514 89.95391951 146.94555955 91.9819235 143.21875 94.36328125 C138.45966216 97.22651751 134.92852578 99.22591121 129.27563477 98.5637207 C127.92954474 98.22653544 126.58897395 97.86676042 125.25390625 97.48828125 C124.51998154 97.29771652 123.78605682 97.10715179 123.02989197 96.91081238 C120.68047838 96.29465031 118.34051778 95.64905521 116 95 C114.47425802 94.59002889 112.94821699 94.18116905 111.421875 93.7734375 C107.46344433 92.70783108 103.5133044 91.6142391 99.56512451 90.51132202 C95.20573109 89.2940239 90.84313758 88.08831037 86.48046875 86.8828125 C85.59993835 86.63937607 84.71940796 86.39593964 83.81219482 86.14512634 C75.18252165 83.76461777 66.53178582 81.46706626 57.875 79.1875 C56.47091254 78.81670048 55.06685932 78.44577129 53.6628418 78.07470703 C48.62182956 76.74306238 43.58079729 75.41168453 38.53515625 74.09765625 C35.47975387 73.30171109 32.42716958 72.49573546 29.375 71.6875 C28.52276855 71.46924561 27.67053711 71.25099121 26.79248047 71.02612305 C22.12045618 69.77831236 18.0703784 68.12858329 13.79541016 65.8762207 C3.30611534 60.7570911 -9.33403988 62.72719317 -20 66 C-25.29515018 68.23317203 -30.22465375 70.79622577 -33 76 C-34.54294981 82.33364712 -34.4668673 87.29644412 -31 93 C-25.93365694 98.44631879 -19.30678038 101.70962013 -11.79589844 102.12060547 C-9.17643457 102.1548365 -6.55713185 102.17083771 -3.9375 102.1875 C11.65852081 102.3973587 26.25996241 107.12183459 41.11682129 111.45330811 C43.81061315 112.2353232 46.51058266 112.99490948 49.2109375 113.75390625 C52.58594337 114.70573815 55.95700463 115.66940692 59.32421875 116.6484375 C64.3095545 118.09630292 69.30942169 119.48986655 74.3125 120.875 C75.09109375 121.0905957 75.8696875 121.30619141 76.671875 121.52832031 C78.44773615 122.01953328 80.22383832 122.5098748 82 123 C82 123.66 82 124.32 82 125 C80.99324219 125.46148437 79.98648438 125.92296875 78.94921875 126.3984375 C71.3439685 129.91396879 63.82969087 133.55050705 56.43359375 137.48828125 C54.76721281 138.36887639 53.10061651 139.24906408 51.43383789 140.12890625 C50.11635056 140.82512085 50.11635056 140.82512085 48.77224731 141.53540039 C40.72012208 145.78940017 32.65758961 150.01927827 24.55322266 154.1730957 C22.41075519 155.27823236 20.27410675 156.39471435 18.14306641 157.52172852 C15.01294575 159.17467355 11.86505898 160.78796357 8.7109375 162.39453125 C7.7670517 162.90361526 6.82316589 163.41269928 5.85067749 163.93721008 C1.35995527 166.1773393 -1.72456537 167.58568345 -6.65454102 166.05493164 C-8.12359764 165.41526057 -9.5736546 164.72996248 -11 164 C-11.99583099 163.52114098 -11.99583099 163.52114098 -13.01177979 163.03260803 C-15.11703514 161.97967476 -17.17620084 160.86161473 -19.23828125 159.7265625 C-27.41564451 155.32872487 -35.67353079 151.1074512 -43.98046875 146.9609375 C-44.59490971 146.6539518 -45.20935066 146.34696609 -45.84241104 146.0306778 C-49.64664902 144.13024229 -53.45236446 142.23278373 -57.25860596 140.33636475 C-60.47456839 138.73352248 -63.68938517 137.12838593 -66.90429688 135.5234375 C-75.63443967 131.16584247 -84.3646096 126.80829568 -93.1003418 122.46191406 C-94.51220944 121.75846837 -95.92407492 121.05501834 -97.3359375 120.3515625 C-98.47466309 119.78518066 -99.61338867 119.21879883 -100.78662109 118.63525391 C-104.36842909 116.81251041 -107.90587131 114.91759608 -111.4375 113 C-116.63207294 110.19372949 -121.89001965 107.60050287 -127.25 105.125 C-135.86301014 101.14043515 -144.23568305 96.75054909 -152.60400391 92.27880859 C-155.85766968 90.54223825 -159.11833066 88.8190104 -162.37890625 87.09545898 C-165.5872056 85.39936249 -168.79359813 83.69968038 -172 82 C-169.88094114 79.68010588 -167.96394458 78.32384259 -165.11328125 77.01953125 C-163.96690186 76.48743042 -163.96690186 76.48743042 -162.79736328 75.94458008 C-161.9773584 75.57099365 -161.15735352 75.19740723 -160.3125 74.8125 C-158.56575314 74.00140503 -156.81966723 73.18888527 -155.07421875 72.375 C-153.77363525 71.76978516 -153.77363525 71.76978516 -152.44677734 71.15234375 C-149.14297882 69.59637398 -145.88166255 67.96428916 -142.625 66.3125 C-135.02205232 62.4742345 -127.35797213 58.76340965 -119.6875 55.0625 C-119.05544647 54.7575058 -118.42339294 54.4525116 -117.77218628 54.13827515 C-109.3327467 50.06809609 -100.87455043 46.03938645 -92.39819336 42.04663086 C-87.00292771 39.49680131 -81.66312763 36.84876664 -76.33666992 34.15869141 C-70.43108683 31.18803509 -64.46893775 28.34080279 -58.5 25.5 C-51.30091701 22.07350776 -44.13463144 18.59812441 -37.02026367 14.99926758 C-30.43486181 11.68319004 -23.76707427 8.54131756 -17.09130859 5.41186523 C-12.01306808 3.01917655 -12.01306808 3.01917655 -7.19921875 0.14453125 C-4.30365179 -1.36239791 -3.11674247 -0.82926951 0 0 Z " fill="#1985F6" transform="translate(543,232)"/>
<path d="M0 0 C4.87647313 1.48193995 9.26225231 3.49264264 13.79296875 5.78125 C14.53249283 6.15105988 15.27201691 6.52086975 16.03395081 6.90188599 C18.42059872 8.09706183 20.80414141 9.29827998 23.1875 10.5 C24.83033641 11.32484095 26.47324026 12.14954762 28.11621094 12.97412109 C37.80908153 17.84679638 47.45123611 22.80365307 57.02734375 27.90234375 C62.36691592 30.73903237 67.77708251 33.43087857 73.19921875 36.10546875 C75.78519747 37.38350449 78.34533957 38.7009077 80.89453125 40.05078125 C81.52254639 40.37860596 82.15056152 40.70643066 82.79760742 41.04418945 C84.50717164 41.93837033 86.21085057 42.84377797 87.9140625 43.75 C91.35152191 45.14238862 93.330125 45.49247355 97 45 C99.40441217 43.91988175 101.55278113 42.8217109 103.8125 41.5 C105.14507362 40.75411695 106.47979359 40.01205822 107.81640625 39.2734375 C108.50492676 38.8928418 109.19344727 38.51224609 109.90283203 38.12011719 C113.28649553 36.3128706 116.76385528 34.72285014 120.25 33.125 C125.98874992 30.47065112 131.61305516 27.67081001 137.1875 24.6875 C146.52293807 19.70392803 155.96812003 14.94133033 165.4269104 10.19741821 C167.18315957 9.31621278 168.93867498 8.43354343 170.69345093 7.54940796 C173.18030447 6.29703335 175.66980339 5.05008626 178.16015625 3.8046875 C178.92077362 3.42080368 179.68139099 3.03691986 180.46505737 2.6414032 C185.77091779 0 185.77091779 0 188 0 C189.58987989 6.95208554 190.42035451 13.6905017 190.6875 20.8125 C190.72439941 21.78098877 190.76129883 22.74947754 190.79931641 23.74731445 C191.65039135 49.81857692 183.95954829 72.31423354 168 93 C167.27554688 93.96421875 166.55109375 94.9284375 165.8046875 95.921875 C162.2543946 100.61751757 158.6498987 105.25213815 154.85546875 109.75390625 C139.32667072 128.24112216 131.04048569 143.75708586 127 168 C105.22 168 83.44 168 61 168 C60.01 162.06 59.02 156.12 58 150 C51.86451717 133.16309362 41.15904615 119.74853925 29.79296875 106.15234375 C12.48844215 85.38125002 -2.40770884 61.92229757 -3 34 C-3.03867187 33.02546875 -3.07734375 32.0509375 -3.1171875 31.046875 C-3.34104846 20.9482584 -2.81572946 9.76626884 0 0 Z " fill="#1984F6" transform="translate(446,370)"/>
<path d="M0 0 C1.00562988 0.12890625 2.01125977 0.2578125 3.04736328 0.390625 C22.05706304 2.91628709 40.54089266 7.15412247 58.625 13.5625 C59.40085449 13.83102783 60.17670898 14.09955566 60.97607422 14.3762207 C67.20749182 16.69787919 70.78809761 20.32226607 74.8125 25.5625 C79.01141255 30.40658551 82.88787963 32.57291904 89.2734375 33.44921875 C97.63638558 33.85738867 103.6409856 32.60255172 110 27 C111.59881671 25.04088656 112.98571431 23.11418714 114.2578125 20.9296875 C128.53709696 5.11361906 166.5286437 2.55467629 186 0 C186.91088379 -0.12004395 187.82176758 -0.24008789 188.76025391 -0.36376953 C217.67972249 -3.91844317 247.96774521 -3.07671711 277 -1.1875 C278.11793945 -1.11756836 279.23587891 -1.04763672 280.38769531 -0.97558594 C286.42183699 -0.50035231 292.55478698 0.1636972 298 3 C300.190401 6.28560151 300.348668 7.5863715 300.4375 11.4375 C300.47746094 12.38496094 300.51742188 13.33242188 300.55859375 14.30859375 C300 17 300 17 297.80859375 19.32421875 C289.93909436 24.01965024 276.67364707 20.59182539 267.8581543 19.78710938 C223.30674185 15.72223894 163.74497454 12.96815493 124 37 C121.33026027 39.38101232 118.92585795 41.88175834 116.515625 44.5234375 C110.19744271 50.74351136 102.28112205 55.03690339 93.375 55.3125 C84.22588092 55.19140872 76.70544079 50.99092661 70 45 C68.78747521 43.67047721 67.57930017 42.33697731 66.375 41 C42.7557313 17.20008679 -11.88391305 17.96485818 -43.25 17.75 C-52.98719132 17.78716869 -62.71805855 18.39392481 -72.4375 18.9375 C-73.21460327 18.98088501 -73.99170654 19.02427002 -74.7923584 19.06896973 C-77.02724403 19.19624112 -79.26169957 19.32923942 -81.49609375 19.46484375 C-82.79732178 19.543396 -84.0985498 19.62194824 -85.43920898 19.70288086 C-88.67728007 19.97307164 -91.80160087 20.44287226 -95 21 C-97.53861607 21.16232241 -100.08166054 21.26407971 -102.625 21.3125 C-104.56246094 21.36857422 -104.56246094 21.36857422 -106.5390625 21.42578125 C-110 21 -110 21 -112.40234375 19.22265625 C-114.71181927 16.00971843 -115.16375551 12.86314142 -115 9 C-114.0625 5.6875 -114.0625 5.6875 -112 3 C-105.4641376 -0.07569995 -99.28272114 -0.74155527 -92.125 -1.1875 C-90.30210449 -1.30593262 -90.30210449 -1.30593262 -88.44238281 -1.42675781 C-59.31369263 -3.13425518 -28.97368298 -3.81273568 0 0 Z " fill="#1984F6" transform="translate(447,632)"/>
<path d="M0 0 C7.08260291 2.90034191 14.33292143 4.7099913 21.75 6.5625 C33.4832472 9.53056406 45.1595953 12.6688581 56.8125 15.9375 C69.91021669 19.60809794 83.03124298 23.16962506 96.19262695 26.60522461 C110.16962191 30.26657107 124.06594782 34.15612354 138 38 C138 62.09 138 86.18 138 111 C136.35 110.67 134.7 110.34 133 110 C128.1807054 109.71942463 123.72131772 109.96721175 119 111 C117.34702091 109.34702091 117.83307817 107.38963445 117.79467773 105.11303711 C117.77473251 104.07203354 117.75478729 103.03102997 117.73423767 101.95848083 C117.70916893 100.26006798 117.70916893 100.26006798 117.68359375 98.52734375 C117.66281265 97.37456436 117.64203156 96.22178497 117.62062073 95.03407288 C117.55500036 91.33527843 117.49618245 87.63641041 117.4375 83.9375 C117.39432665 81.43684121 117.35071276 78.93618999 117.30664062 76.43554688 C117.19930632 70.29044338 117.09756357 64.14526596 117 58 C94.82944503 51.64170567 94.82944503 51.64170567 72.5 45.875 C63.92673385 43.78559664 55.47402174 41.42228584 47.01977539 38.8972168 C35.38669882 35.46036357 23.64447326 32.43488596 11.90771484 29.37597656 C11.10700058 29.16719376 10.30628632 28.95841095 9.48130798 28.74330139 C7.97909242 28.35204683 6.47663759 27.96170921 4.97389221 27.57249451 C4.29020065 27.39477005 3.60650909 27.21704559 2.90209961 27.03393555 C2.24778458 26.86385483 1.59346954 26.69377411 0.91932678 26.51853943 C-0.97815564 26.00590163 -2.86076783 25.43922066 -4.74267578 24.87207031 C-7.48802553 24.13706887 -9.47285884 23.78367704 -12.26953125 23.91015625 C-13.37796387 23.94351074 -13.37796387 23.94351074 -14.50878906 23.97753906 C-15.26901367 24.00557617 -16.02923828 24.03361328 -16.8125 24.0625 C-26.2966264 24.22834686 -34.42402074 23.28251939 -42 17 C-44.34885769 14.12075508 -45 12.72527067 -45 9 C-43.45481999 4.36445996 -40.52705465 2.08501252 -36.625 -0.6875 C-24.81931331 -6.59034335 -11.64367007 -5.1807401 0 0 Z " fill="#1A85F6" transform="translate(559,305)"/>
<path d="M0 0 C3.65031725 1.53271547 5.93939751 3.72153877 8.6953125 6.53515625 C10.01595703 7.87223633 10.01595703 7.87223633 11.36328125 9.23632812 C12.27464844 10.16896484 13.18601562 11.10160156 14.125 12.0625 C15.93789615 13.90972167 17.75289358 15.75488421 19.5703125 17.59765625 C20.37227051 18.41758057 21.17422852 19.23750488 22.00048828 20.08227539 C23.85596361 22.0514634 23.85596361 22.0514634 26 23 C26 23.66 26 24.32 26 25 C26.66 25 27.32 25 28 25 C28 25.66 28 26.32 28 27 C28.66 27 29.32 27 30 27 C30 27.66 30 28.32 30 29 C30.57744965 29.25278717 31.15489929 29.50557434 31.74984741 29.76602173 C34.27339966 31.14993171 35.96579935 32.71179064 38.00244141 34.74365234 C39.16351913 35.89527359 39.16351913 35.89527359 40.34805298 37.07015991 C41.17421112 37.90036652 42.00036926 38.73057312 42.8515625 39.5859375 C43.70680511 40.43926666 44.56204773 41.29259583 45.44320679 42.17178345 C47.24942979 43.97664593 49.0531314 45.78403471 50.85449219 47.59375 C53.61433432 50.36429296 56.38466503 53.12402249 59.15625 55.8828125 C60.9094958 57.63737992 62.66212109 59.39256764 64.4140625 61.1484375 C65.65937241 62.38767471 65.65937241 62.38767471 66.92984009 63.65194702 C67.69758759 64.42599884 68.46533508 65.20005066 69.25634766 65.99755859 C69.93267242 66.67547455 70.60899719 67.3533905 71.30581665 68.05184937 C74.1135309 71.28045523 75.0321857 73.11489338 74.875 77.4375 C73.85764988 81.57956834 73.2059966 83.17566966 70 86 C62.18736915 89.47218361 53.81457767 91.49700797 45.5625 93.625 C42.9330893 94.31325744 40.30409718 95.00290522 37.67578125 95.6953125 C36.98938568 95.87584167 36.30299011 96.05637085 35.59579468 96.24237061 C30.08642935 97.69771036 24.5938971 99.20993095 19.10546875 100.7421875 C17.87148094 101.08668442 17.87148094 101.08668442 16.61256409 101.43814087 C13.34921863 102.35046103 10.08636835 103.26448955 6.82473755 104.18292236 C4.55558928 104.82186467 2.28565143 105.45793615 0.015625 106.09375 C-1.00728386 106.38377396 -1.00728386 106.38377396 -2.05085754 106.67965698 C-6.77390988 108 -6.77390988 108 -9 108 C-9 107.34 -9 106.68 -9 106 C-8.05253906 105.4738208 -8.05253906 105.4738208 -7.0859375 104.93701172 C-4.05585627 103.25223852 -1.02761939 101.56419347 2 99.875 C3.67509644 98.94059082 3.67509644 98.94059082 5.3840332 97.98730469 C14.40234856 92.93740247 23.33467615 87.75127666 32.20507812 82.44482422 C36.7108834 79.77870854 40.88896374 77.3400364 46 76 C44.02 73.03 42.04 70.06 40 67 C24.24432239 73.25593081 8.77692771 79.62674799 -5.66796875 88.5859375 C-8.11115272 90.06739914 -10.60097409 91.41133145 -13.125 92.75 C-27.43725818 100.52008672 -40.58423277 109.73379547 -53.328125 119.84765625 C-55 121 -55 121 -57 121 C-57.495 121.99 -57.495 121.99 -58 123 C-58.33 122.34 -58.66 121.68 -59 121 C-52.56413829 107.27189176 -40.41839322 93.80284118 -29 84 C-28.34 84 -27.68 84 -27 84 C-27 83.34 -27 82.68 -27 82 C-24.97415654 80.25054598 -22.94081726 78.61685471 -20.8125 77 C-20.17755615 76.51088135 -19.5426123 76.0217627 -18.88842773 75.51782227 C-17.56871402 74.50186389 -16.24715288 73.48830115 -14.92382812 72.47705078 C-13.17236824 71.13233856 -11.43501853 69.77210447 -9.703125 68.40234375 C1.66964987 59.47669581 13.76400312 51.68247621 26 44 C21.99966832 36.4242803 17.64761799 29.19193441 13 22 C10.86720717 18.67159362 8.74485469 15.33665755 6.625 12 C6.08858887 11.16210938 5.55217773 10.32421875 4.99951172 9.4609375 C4.49693848 8.66945313 3.99436523 7.87796875 3.4765625 7.0625 C3.02361816 6.35222656 2.57067383 5.64195312 2.10400391 4.91015625 C1 3 1 3 0 0 Z " fill="#1984F6" transform="translate(643,480)"/>
<path d="M0 0 C0.99 0.495 0.99 0.495 2 1 C1.60321045 1.63276855 1.2064209 2.26553711 0.79760742 2.91748047 C-7.54709547 16.2309597 -15.84374466 29.57015753 -24 43 C-19.777653 46.53111465 -15.28783177 49.49781788 -10.6875 52.5 C6.52680692 63.86203974 22.61778254 76.52028596 37.609375 90.68847656 C38.75266919 91.76673787 39.90620962 92.83412476 41.0625 93.8984375 C49.23267011 101.65253413 55.49265324 111.2379579 61 121 C60.34 121.66 59.68 122.32 59 123 C58.608125 122.62230469 58.21625 122.24460937 57.8125 121.85546875 C50.80547223 115.40719104 42.92301277 110.23759765 35 105 C34.27377441 104.51869629 33.54754883 104.03739258 32.79931641 103.54150391 C15.91471638 92.42763703 -1.73805656 82.26690722 -20.42578125 74.5 C-25.19551026 72.49827766 -29.8512955 70.28654321 -34.5234375 68.06640625 C-36.85675609 66.86816923 -36.85675609 66.86816923 -39 67 C-40.65 69.97 -42.3 72.94 -44 76 C-43.20464844 76.22042969 -42.40929687 76.44085937 -41.58984375 76.66796875 C-36.92824158 78.39768185 -32.84387977 80.80367875 -28.5625 83.3125 C-26.69959607 84.39127684 -24.83629976 85.46937632 -22.97265625 86.546875 C-22.00215332 87.10955078 -21.03165039 87.67222656 -20.03173828 88.25195312 C-13.89848842 91.78827693 -7.72187753 95.24830884 -1.55297852 98.72192383 C-0.63830811 99.23779053 0.2763623 99.75365723 1.21875 100.28515625 C2.02248047 100.73769775 2.82621094 101.19023926 3.65429688 101.65649414 C4.42837891 102.09985107 5.20246094 102.54320801 6 103 C6.92361328 103.50974365 7.84722656 104.0194873 8.79882812 104.54467773 C9.52521484 105.02493408 10.25160156 105.50519043 11 106 C11 106.66 11 107.32 11 108 C-1.38559921 104.97806443 -13.69676564 101.7008565 -26.00073242 98.36376953 C-29.19179759 97.49883514 -32.38394153 96.63796651 -35.57617188 95.77734375 C-41.39016628 94.20648595 -47.19679997 92.61022667 -53 91 C-53.73156311 90.79955078 -54.46312622 90.59910156 -55.21685791 90.39257812 C-57.04016345 89.88939661 -58.85827567 89.3674944 -60.67578125 88.84375 C-62.07630737 88.44446289 -62.07630737 88.44446289 -63.50512695 88.03710938 C-67.15274834 86.52080684 -69.9865299 84.33593785 -72.375 81.1875 C-73.38160848 77.66437033 -73.00299706 75.53998961 -72 72 C-67.58173432 66.01957632 -61.97322108 60.81331984 -56.73046875 55.5625 C-55.96825516 54.79695801 -55.20604156 54.03141602 -54.42073059 53.24267578 C-52.82451788 51.64143771 -51.22698208 50.04151757 -49.62817383 48.44287109 C-47.17175823 45.98424406 -44.7234796 43.51769604 -42.27539062 41.05078125 C-40.71923871 39.49169956 -39.16261516 37.93308843 -37.60546875 36.375 C-36.87216843 35.63451416 -36.1388681 34.89402832 -35.38334656 34.13110352 C-34.70536514 33.45619873 -34.02738373 32.78129395 -33.32885742 32.0859375 C-32.73264084 31.4882959 -32.13642426 30.8906543 -31.5221405 30.27490234 C-30 29 -30 29 -28 29 C-28 28.34 -28 27.68 -28 27 C-27.34 27 -26.68 27 -26 27 C-26 26.34 -26 25.68 -26 25 C-25.34 25 -24.68 25 -24 25 C-23.76023437 24.4225 -23.52046875 23.845 -23.2734375 23.25 C-21.74281817 20.54559284 -19.98720192 19.01819193 -17.625 17 C-11.46612217 11.6064798 -5.74083489 5.82961068 0 0 Z " fill="#1884F6" transform="translate(435,480)"/>
<path d="M0 0 C0.92296875 -0.06058594 1.8459375 -0.12117187 2.796875 -0.18359375 C3.73015625 -0.26738281 4.6634375 -0.35117187 5.625 -0.4375 C13.18725495 1.675483 18.27469419 11.90142551 22.546875 18.06640625 C23.14371094 18.89462891 23.74054688 19.72285156 24.35546875 20.57617188 C25.19271484 21.78370117 25.19271484 21.78370117 26.046875 23.015625 C26.5521875 23.73451904 27.0575 24.45341309 27.578125 25.1940918 C28.83148539 28.02078587 28.50957863 29.48026579 27.546875 32.37890625 C26.556875 33.36890625 26.556875 33.36890625 25.546875 34.37890625 C22.94818865 34.35986825 20.44527482 34.2149839 17.859375 34.00390625 C-7.12003044 32.39577983 -32.58780003 32.45781659 -57.453125 35.37890625 C-58.82500977 35.53166016 -58.82500977 35.53166016 -60.22460938 35.6875 C-89.92581572 39.03586147 -120.09446646 44.41313328 -148.49560547 53.95654297 C-150.453125 54.37890625 -150.453125 54.37890625 -153.453125 53.37890625 C-145.99371874 47.09198119 -137.88368713 42.21628986 -129.453125 37.37890625 C-128.34710937 36.73050781 -127.24109375 36.08210937 -126.1015625 35.4140625 C-90.19124864 15.22998954 -46.78596678 3.97852008 -5.88623047 0.58178711 C-3.92141177 0.41795364 -1.9598739 0.21505404 0 0 Z " fill="#1985F6" transform="translate(712.453125,580.62109375)"/>
<path d="M0 0 C1.0607373 0.25765137 2.12147461 0.51530273 3.21435547 0.78076172 C26.02395768 6.45732731 48.34978879 14.71820237 69 26 C69.66918457 26.35803711 70.33836914 26.71607422 71.02783203 27.08496094 C79.8467953 31.81108905 88.08633442 36.84678969 96 43 C95.67 43.66 95.34 44.32 95 45 C93.65143921 44.63032104 93.65143921 44.63032104 92.27563477 44.25317383 C48.07207344 32.19253962 3.70680442 23.75166423 -42.25 23.875 C-43.97753907 23.87477543 -45.70507813 23.87453116 -47.43261719 23.87426758 C-57.17679797 23.88896025 -66.89596914 24.00025012 -76.60644531 24.90771484 C-81.49695204 25.29608531 -81.49695204 25.29608531 -83.984375 23.83203125 C-85.46386199 21.16326434 -85.58660118 20.04352494 -85 17 C-83.35922933 14.22994774 -81.38408643 11.76062006 -79.375 9.25 C-78.26895143 7.82828498 -77.16476811 6.40511679 -76.0625 4.98046875 C-75.26585937 3.95638916 -75.26585937 3.95638916 -74.453125 2.91162109 C-72.15410356 -0.11279723 -70.10087484 -3.27829988 -68.0859375 -6.49609375 C-59.79280571 -17.98118634 -11.39418437 -2.76854228 0 0 Z " fill="#1984F6" transform="translate(424,590)"/>
<path d="M0 0 C0.69158203 -0.09603516 1.38316406 -0.19207031 2.09570312 -0.29101562 C4.6251183 -0.41595412 6.11528652 -0.23368032 8.4375 0.8125 C11.22439865 3.93690159 13.27834838 7.40037459 15.37362671 11.0151062 C17.19180265 14.08688006 19.18945868 17.03913955 21.1640625 20.01171875 C21.97761104 21.25256838 22.79010398 22.49411072 23.6015625 23.73632812 C24.00665039 24.35580322 24.41173828 24.97527832 24.82910156 25.61352539 C25.23612305 26.23606201 25.64314453 26.85859863 26.0625 27.5 C27.30200905 29.39550511 28.54168637 31.29089927 29.78182983 33.18598938 C30.90133735 34.89676352 32.0202695 36.60791414 33.13916016 38.3190918 C35.88125218 42.49952233 38.66002558 46.65552975 41.4375 50.8125 C41.44780746 50.20084488 41.45811493 49.58918976 41.46873474 48.95899963 C41.57656745 42.61667684 41.69118342 36.27450286 41.80981445 29.93237305 C41.8532381 27.56261292 41.89490749 25.19282 41.93481445 22.82299805 C41.99233768 19.42486667 42.05608303 16.02690157 42.12109375 12.62890625 C42.13780624 11.56225235 42.15451874 10.49559845 42.17173767 9.3966217 C42.19168289 8.41568039 42.21162811 7.43473907 42.23217773 6.42407227 C42.24772202 5.55581314 42.2632663 4.68755402 42.27928162 3.79298401 C42.4375 1.8125 42.4375 1.8125 43.4375 0.8125 C48.7175 0.8125 53.9975 0.8125 59.4375 0.8125 C59.4375 27.2125 59.4375 53.6125 59.4375 80.8125 C53.8275 80.8125 48.2175 80.8125 42.4375 80.8125 C37.38134453 74.71740848 37.38134453 74.71740848 35.875 71.4765625 C32.90083697 65.5413732 29.09967329 60.16994649 25.375 54.6875 C24.04919637 52.7067891 22.72495194 50.72503356 21.40234375 48.7421875 C20.09394531 46.78539062 18.78554688 44.82859375 17.4375 42.8125 C14.7975 38.8525 12.1575 34.8925 9.4375 30.8125 C9.1075 47.3125 8.7775 63.8125 8.4375 80.8125 C2.8275 80.8125 -2.7825 80.8125 -8.5625 80.8125 C-8.58505131 70.52945071 -8.60341525 60.24641772 -8.61431217 49.96334934 C-8.61954093 45.1890172 -8.62663844 40.41470279 -8.63793945 35.64038086 C-8.6487686 31.03683738 -8.65477689 26.43331101 -8.65737724 21.82975578 C-8.65923144 20.06940377 -8.66285196 18.30905274 -8.66823006 16.54870796 C-8.67544086 14.09177723 -8.67649093 11.63491805 -8.67602539 9.17797852 C-8.67962067 8.44286545 -8.68321594 7.70775238 -8.68692017 6.95036316 C-8.67235768 -0.10588386 -6.47710277 0.41244332 0 0 Z " fill="#000000" transform="translate(798.5625,720.1875)"/>
<path d="M0 0 C9.37857345 5.94299559 16.96542093 14.08248084 20.64453125 24.67578125 C22.92549529 35.62733296 22.66867551 47.34725837 17.203125 57.30078125 C11.39799979 66.13642425 3.9146046 73.50335022 -6.35546875 76.67578125 C-19.12471159 79.28568136 -30.72745216 78.15824563 -41.98046875 71.61328125 C-47.64797446 67.79753483 -51.651395 63.39312802 -55.35546875 57.67578125 C-56.03802734 56.62390625 -56.03802734 56.62390625 -56.734375 55.55078125 C-61.51031545 46.23187306 -60.74910711 32.98065481 -58.54296875 23 C-54.70641849 12.72923524 -47.27758438 5.25693912 -37.91015625 -0.16796875 C-26.54902051 -5.31001184 -11.23109941 -5.57628012 0 0 Z M-38.91015625 21.48046875 C-43.49810851 28.44919623 -43.16940525 36.6526929 -42.35546875 44.67578125 C-40.4942319 50.62866276 -37.38558584 55.90319343 -32.35546875 59.67578125 C-25.06374056 63.11870857 -18.37944153 63.71887255 -10.66796875 61.48828125 C-6.59592761 60.0024418 -4.15004311 58.04570916 -1.35546875 54.67578125 C-0.52015625 53.68578125 -0.52015625 53.68578125 0.33203125 52.67578125 C4.96729986 45.61251479 4.61386947 36.82251315 3.64453125 28.67578125 C1.73502828 22.04579027 -1.61084654 17.42737126 -7.35546875 13.67578125 C-19.34170298 7.68266414 -30.76707181 12.12539035 -38.91015625 21.48046875 Z " fill="#000000" transform="translate(758.35546875,724.32421875)"/>
<path d="M0 0 C47.49152542 0 47.49152542 0 59.19140625 11.07421875 C68.07166217 20.44509655 70.36607786 29.84932337 70.20703125 42.55859375 C69.54347736 53.58861218 66.0803824 62.60327218 57.70703125 70.03515625 C40.04254573 83.26245781 22.95342179 79 0 79 C0 52.93 0 26.86 0 0 Z M17 14 C17 30.83 17 47.66 17 65 C33.00986174 65.59367521 33.00986174 65.59367521 46.2734375 58.74609375 C51.82859374 53.12809637 52.67070334 46.81514404 53.03515625 39.1171875 C52.95986827 32.44165337 51.16122626 26.2984558 47 21 C38.32213765 12.84021898 28.88952536 14 17 14 Z " fill="#000000" transform="translate(281,722)"/>
<path d="M0 0 C0.83724609 -0.01224609 1.67449219 -0.02449219 2.53710938 -0.03710938 C3.73883789 -0.04000977 3.73883789 -0.04000977 4.96484375 -0.04296875 C5.70210693 -0.04707764 6.43937012 -0.05118652 7.19897461 -0.05541992 C9.0625 0.1875 9.0625 0.1875 11.0625 2.1875 C11.80009948 4.02766463 12.46582001 5.89692816 13.09375 7.77734375 C13.48715576 8.94080322 13.88056152 10.1042627 14.28588867 11.30297852 C14.49361908 11.92520294 14.70134949 12.54742737 14.91537476 13.18850708 C16.01945164 16.49240705 17.14387356 19.78933837 18.26953125 23.0859375 C18.50029861 23.76235794 18.73106598 24.43877838 18.96882629 25.13569641 C21.28150391 31.8830977 23.74992272 38.56994019 26.25 45.25 C29.29237006 53.39508687 32.30161348 61.54796729 35.1875 69.75 C35.63065552 71.00018921 35.63065552 71.00018921 36.08276367 72.27563477 C38.0625 77.94419319 38.0625 77.94419319 38.0625 80.1875 C32.1225 80.1875 26.1825 80.1875 20.0625 80.1875 C18.4125 75.5675 16.7625 70.9475 15.0625 66.1875 C0.2125 65.6925 0.2125 65.6925 -14.9375 65.1875 C-15.9275 68.4875 -16.9175 71.7875 -17.9375 75.1875 C-18.5975 76.8375 -19.2575 78.4875 -19.9375 80.1875 C-25.8775 80.1875 -31.8175 80.1875 -37.9375 80.1875 C-35.81902464 72.89274995 -33.41645807 65.75945866 -30.8125 58.625 C-30.01031608 56.41279689 -29.20823575 54.20055621 -28.40625 51.98828125 C-27.99761719 50.86373535 -27.58898437 49.73918945 -27.16796875 48.58056641 C-25.584281 44.21348459 -24.01482131 39.84136249 -22.44580078 35.46899414 C-19.29768934 26.70080525 -16.13564127 17.93757431 -12.9375 9.1875 C-12.50123291 7.98504639 -12.50123291 7.98504639 -12.05615234 6.75830078 C-9.32485484 -0.68121761 -7.57061537 0.00580124 0 0 Z M-0.9375 23.1875 C-4.2375 32.7575 -7.5375 42.3275 -10.9375 52.1875 C-4.0075 52.1875 2.9225 52.1875 10.0625 52.1875 C8.48732561 44.90647335 8.48732561 44.90647335 6.3359375 37.93359375 C5.871875 36.62358398 5.871875 36.62358398 5.3984375 35.28710938 C5.08132813 34.40861328 4.76421875 33.53011719 4.4375 32.625 C4.11265625 31.71169922 3.7878125 30.79839844 3.453125 29.85742188 C2.66096371 27.63238059 1.8640341 25.40917825 1.0625 23.1875 C0.4025 23.1875 -0.2575 23.1875 -0.9375 23.1875 Z " fill="#000000" transform="translate(558.9375,720.8125)"/>
<path d="M0 0 C5.61 0 11.22 0 17 0 C17.01981934 1.54381348 17.03963867 3.08762695 17.06005859 4.67822266 C17.13622248 10.4147146 17.22492376 16.15095648 17.31738281 21.88720703 C17.35562791 24.36827654 17.39048853 26.84940065 17.421875 29.33056641 C17.46762202 32.90026339 17.52560169 36.46958594 17.5859375 40.0390625 C17.59748871 41.14553131 17.60903992 42.25200012 17.62094116 43.39199829 C17.74794 50.04324863 18.01062955 55.28722212 22.0625 60.8125 C25.99371159 63.739998 29.1645993 64.15758596 34 64 C38.33872757 63.14647982 41.83391311 62.16608689 45 59 C46.7336533 55.39040331 47.26284161 52.46110522 47.31884766 48.4753418 C47.33871735 47.39459885 47.35858704 46.3138559 47.37905884 45.20036316 C47.39638565 43.46729668 47.39638565 43.46729668 47.4140625 41.69921875 C47.43342865 40.50770706 47.4527948 39.31619537 47.4727478 38.08857727 C47.53245896 34.28829068 47.57889581 30.48797366 47.625 26.6875 C47.6631875 24.10871085 47.70223968 21.52993435 47.7421875 18.95117188 C47.83815384 12.63421749 47.92221673 6.31720339 48 0 C53.61 0 59.22 0 65 0 C65.07448479 7.50730247 65.12876082 15.01438697 65.16479492 22.52197266 C65.17982636 25.07279206 65.20025705 27.62358585 65.22631836 30.17431641 C65.26294972 33.85325463 65.27978346 37.53184935 65.29296875 41.2109375 C65.30845261 42.34050873 65.32393646 43.47007996 65.33988953 44.63388062 C65.34212688 55.30127738 63.49023995 64.08578421 56 72 C48.5039682 79.05508875 39.18389712 80.54819875 29.18359375 80.2890625 C20.17196837 79.47082903 12.97553475 76.42313945 6.8125 69.6875 C1.3991113 63.05539028 -0.13361177 55.84972147 -0.11352539 47.45361328 C-0.11344986 46.39296661 -0.11337433 45.33231995 -0.11329651 44.23953247 C-0.10813522 43.11118988 -0.10297394 41.98284729 -0.09765625 40.8203125 C-0.09553383 39.06846146 -0.09553383 39.06846146 -0.09336853 37.28121948 C-0.08778498 33.56245326 -0.07523544 29.84374793 -0.0625 26.125 C-0.05748288 23.5989592 -0.05292034 21.07291746 -0.04882812 18.546875 C-0.03782093 12.36455998 -0.02056755 6.18229031 0 0 Z " fill="#000000" transform="translate(361,722)"/>
<path d="M0 0 C7.92063812 5.51131854 12.66514427 11.64760819 15.8046875 20.6796875 C12.55536823 20.85423771 9.30725302 20.96060503 6.0546875 21.0546875 C4.67410156 21.13009766 4.67410156 21.13009766 3.265625 21.20703125 C0.65269893 21.26383399 -1.64207462 21.24637759 -4.1953125 20.6796875 C-6.578125 17.8046875 -6.578125 17.8046875 -8.1953125 14.6796875 C-13.80531586 10.59770062 -20.44746277 9.63260737 -27.1953125 10.6796875 C-32.87500162 12.34442397 -37.05989461 14.49418869 -40.1953125 19.6796875 C-44.11986899 27.96486232 -45.71929175 35.44221078 -42.9453125 44.3671875 C-40.71969807 50.28155176 -38.15383247 54.94293107 -32.30859375 57.921875 C-24.60114732 60.68572825 -17.54864178 59.98504541 -10.1953125 56.6796875 C-9.47601563 56.36773438 -8.75671875 56.05578125 -8.015625 55.734375 C-5.44597831 54.24552391 -5.11034863 52.42479588 -4.1953125 49.6796875 C-3.1953125 48.6796875 -3.1953125 48.6796875 -1.42944336 48.56616211 C-0.68057861 48.57139893 0.06828613 48.57663574 0.83984375 48.58203125 C1.64873047 48.58525391 2.45761719 48.58847656 3.29101562 48.59179688 C4.14115234 48.60017578 4.99128906 48.60855469 5.8671875 48.6171875 C6.72119141 48.62169922 7.57519531 48.62621094 8.45507812 48.63085938 C10.57164413 48.64268377 12.68817435 48.66061981 14.8046875 48.6796875 C15.1346875 49.3396875 15.4646875 49.9996875 15.8046875 50.6796875 C12.40150838 60.68466218 5.90549761 67.30421841 -3.3203125 72.1171875 C-12.52356743 76.59675588 -24.36391349 77.39955253 -34.23046875 74.4375 C-46.10512755 69.85761171 -53.58298202 63.53422318 -59.4609375 52.25 C-63.64647642 42.55251897 -63.91773076 30.6938127 -60.5703125 20.6796875 C-55.72735086 9.56441789 -48.49178724 1.12514879 -37.1953125 -3.8203125 C-24.99856941 -7.70109439 -10.95158916 -6.58654295 0 0 Z " fill="#000000" transform="translate(498.1953125,726.3203125)"/>
<path d="M0 0 C1.34644592 -0.00472824 1.34644592 -0.00472824 2.72009277 -0.009552 C4.18412537 -0.00651566 4.18412537 -0.00651566 5.67773438 -0.00341797 C6.67276978 -0.00437469 7.66780518 -0.00533142 8.69299316 -0.00631714 C10.80135155 -0.00699907 12.90971203 -0.0051439 15.01806641 -0.00097656 C18.25753465 0.0043715 21.49686423 -0.00092114 24.73632812 -0.00732422 C26.77929718 -0.00666344 28.82226615 -0.00538228 30.86523438 -0.00341797 C31.8412561 -0.0054422 32.81727783 -0.00746643 33.82287598 -0.009552 C34.72050659 -0.00639984 35.61813721 -0.00324768 36.54296875 0 C37.73424377 0.00119339 37.73424377 0.00119339 38.94958496 0.00241089 C40.77148438 0.12939453 40.77148438 0.12939453 41.77148438 1.12939453 C41.77148438 5.74939453 41.77148438 10.36939453 41.77148438 15.12939453 C31.87148438 15.12939453 21.97148437 15.12939453 11.77148438 15.12939453 C11.77148438 21.06939453 11.77148438 27.00939453 11.77148438 33.12939453 C13.63675781 33.11779297 15.50203125 33.10619141 17.42382812 33.09423828 C19.85221255 33.08486228 22.28059804 33.07576188 24.70898438 33.06689453 C26.5565332 33.05432617 26.5565332 33.05432617 28.44140625 33.04150391 C29.61123047 33.03828125 30.78105469 33.03505859 31.98632812 33.03173828 C33.61235962 33.02388306 33.61235962 33.02388306 35.27124023 33.01586914 C37.77148438 33.12939453 37.77148438 33.12939453 38.77148438 34.12939453 C38.87022254 36.12739025 38.90120237 38.12896611 38.89648438 40.12939453 C38.90035156 41.76908203 38.90035156 41.76908203 38.90429688 43.44189453 C38.77148438 46.12939453 38.77148438 46.12939453 37.77148438 47.12939453 C35.8448093 47.2168766 33.91496576 47.23636787 31.98632812 47.22705078 C30.81650391 47.22382812 29.64667969 47.22060547 28.44140625 47.21728516 C27.20970703 47.20890625 25.97800781 47.20052734 24.70898438 47.19189453 C22.85563477 47.18512695 22.85563477 47.18512695 20.96484375 47.17822266 C17.90037024 47.16639071 14.83592145 47.14845461 11.77148438 47.12939453 C11.77148438 53.39939453 11.77148438 59.66939453 11.77148438 66.12939453 C21.67148438 66.12939453 31.57148438 66.12939453 41.77148438 66.12939453 C41.77148438 70.74939453 41.77148438 75.36939453 41.77148438 80.12939453 C35.23869098 80.154038 28.7059244 80.17222744 22.1730957 80.18432617 C19.94880706 80.1893677 17.72452175 80.19620076 15.50024414 80.20483398 C12.31070129 80.21690752 9.12120209 80.22262449 5.93164062 80.22705078 C4.43009178 80.23479271 4.43009178 80.23479271 2.89820862 80.24269104 C1.97732956 80.24276657 1.0564505 80.2428421 0.10766602 80.24291992 C-0.70729843 80.24514053 -1.52226288 80.24736115 -2.36192322 80.24964905 C-4.22851562 80.12939453 -4.22851562 80.12939453 -5.22851562 79.12939453 C-5.32881419 76.70082418 -5.36469987 74.3006784 -5.35791016 71.87158203 C-5.35966248 71.11226379 -5.36141479 70.35294556 -5.36322021 69.57061768 C-5.36763892 67.04852037 -5.36470068 64.52649261 -5.36132812 62.00439453 C-5.36200116 60.25943997 -5.36297118 58.51448549 -5.36422729 56.76953125 C-5.36570429 53.10757558 -5.36354965 49.44564425 -5.35888672 45.78369141 C-5.35318943 41.07894961 -5.35646842 36.37426485 -5.36245918 31.66952515 C-5.36606474 28.06485562 -5.36492623 24.46019971 -5.36233139 20.85552979 C-5.36166211 19.12030023 -5.36249059 17.38506945 -5.36481094 15.64984131 C-5.36733739 13.22892966 -5.36349701 10.80811167 -5.35791016 8.38720703 C-5.35993439 7.66301575 -5.36195862 6.93882446 -5.36404419 6.19268799 C-5.33745729 0.00534693 -5.33745729 0.00534693 0 0 Z " fill="#000000" transform="translate(226.228515625,720.87060546875)"/>
<path d="M0 0 C19.47 0 38.94 0 59 0 C59 4.29 59 8.58 59 13 C58.67 13.33 58.34 13.66 58 14 C51.4 14 44.8 14 38 14 C38 35.45 38 56.9 38 79 C32.39 79 26.78 79 21 79 C21 57.55 21 36.1 21 14 C14.07 14 7.14 14 0 14 C0 9.38 0 4.76 0 0 Z " fill="#010101" transform="translate(602,722)"/>
<path d="M0 0 C5.32459699 4.97176225 7.71656228 10.38515292 8.1953125 17.56640625 C8.07149154 24.96814803 5.16102458 30.60069417 -0.0546875 35.81640625 C-6.53699986 40.42882082 -12.76639309 41.56462408 -20.6171875 40.25390625 C-26.3414526 38.74278032 -31.13431861 35.75246157 -34.40625 30.75 C-37.60669333 24.49877436 -39.45644296 18.39496621 -37.3359375 11.46875 C-34.32349279 4.19272427 -29.86865984 -0.20877655 -23.0546875 -4.18359375 C-14.67169924 -6.36261553 -6.95591317 -5.1733046 0 0 Z " fill="#1984F6" transform="translate(702.0546875,424.18359375)"/>
<path d="M0 0 C1.47216728 -0.01441132 1.47216728 -0.01441132 2.97407532 -0.02911377 C4.0334581 -0.03336365 5.09284088 -0.03761353 6.18432617 -0.04199219 C7.82131721 -0.0505423 7.82131721 -0.0505423 9.49137878 -0.05926514 C11.80218537 -0.06871582 14.11300543 -0.07524939 16.42382812 -0.07910156 C19.9529584 -0.08880031 23.48150464 -0.11982091 27.01049805 -0.15136719 C29.2559373 -0.15789803 31.50138071 -0.16314818 33.74682617 -0.16699219 C34.80013626 -0.17933899 35.85344635 -0.19168579 36.93867493 -0.20440674 C42.40764227 -0.18784312 46.49784932 -0.04008613 51.16479492 3.16113281 C53.56894961 6.57348141 54.16479492 8.54302972 54.16479492 12.72363281 C52.97863309 16.8010641 51.40195357 18.47665979 48.16479492 21.16113281 C45.69501563 22.39602246 44.02217872 22.30795824 41.25952148 22.33813477 C40.23795959 22.35097 39.21639771 22.36380524 38.16387939 22.37702942 C36.50144196 22.38810982 36.50144196 22.38810982 34.80541992 22.39941406 C33.66828552 22.40748581 32.53115112 22.41555756 31.35955811 22.4238739 C28.94862395 22.43772379 26.53767012 22.44844188 24.12670898 22.45629883 C20.44371212 22.47349777 16.76161589 22.51737572 13.07885742 22.56152344 C10.7377182 22.57165134 8.39657133 22.58016714 6.05541992 22.58691406 C4.95522522 22.60442215 3.85503052 22.62193024 2.72149658 22.63996887 C-3.43463162 22.62255379 -7.18803683 22.35528435 -11.83520508 18.16113281 C-13.74823971 15.08364232 -13.83773906 13.30303574 -13.77270508 9.66113281 C-12.65300448 5.48091724 -11.16733672 3.85857271 -7.83520508 1.16113281 C-4.92628214 0.19149183 -3.028939 0.0239513 0 0 Z " fill="#1985F6" transform="translate(519.835205078125,545.8388671875)"/>
<path d="M0 0 C5.61 0 11.22 0 17 0 C17 26.07 17 52.14 17 79 C11.39 79 5.78 79 0 79 C0 52.93 0 26.86 0 0 Z " fill="#020202" transform="translate(671,722)"/>
<path d="M0 0 C19.8 0 39.6 0 60 0 C56.62857143 10.11428571 56.62857143 10.11428571 54 14 C53.34 14.99 52.68 15.98 52 17 C51.34 17 50.68 17 50 17 C50 17.66 50 18.32 50 19 C47.98828125 20.47265625 47.98828125 20.47265625 45.3125 22.0625 C44.44238281 22.58972656 43.57226562 23.11695313 42.67578125 23.66015625 C35.93050384 27.03771851 27.61271744 26.98576697 20.4375 24.9375 C12.9292895 22.09368222 7.14527826 17.08996992 2.97265625 10.28515625 C1.57500666 7.00152166 0.86553895 3.4621558 0 0 Z " fill="#1984F5" transform="translate(510,580)"/>
<path d="M0 0 C2.66015625 0.3203125 2.66015625 0.3203125 4.5390625 2.078125 C5.09464844 2.85929688 5.65023438 3.64046875 6.22265625 4.4453125 C6.81304687 5.26128906 7.4034375 6.07726562 8.01171875 6.91796875 C8.55570312 7.71074219 9.0996875 8.50351562 9.66015625 9.3203125 C10.10101563 9.95839844 10.541875 10.59648438 10.99609375 11.25390625 C11.90385536 12.59623459 12.78565124 13.95608469 13.66015625 15.3203125 C13.75103516 13.82177734 13.75103516 13.82177734 13.84375 12.29296875 C13.92753906 11.00261719 14.01132812 9.71226562 14.09765625 8.3828125 C14.17886719 7.09503906 14.26007813 5.80726563 14.34375 4.48046875 C14.66015625 1.3203125 14.66015625 1.3203125 15.66015625 0.3203125 C17.65973989 0.27950467 19.66060879 0.27776894 21.66015625 0.3203125 C22.49236632 3.94831869 22.78865698 7.30423214 22.79296875 11.0234375 C22.79490234 12.61671875 22.79490234 12.61671875 22.796875 14.2421875 C22.79300781 15.34046875 22.78914063 16.43875 22.78515625 17.5703125 C22.79095703 19.2409375 22.79095703 19.2409375 22.796875 20.9453125 C22.79558594 22.00234375 22.79429687 23.059375 22.79296875 24.1484375 C22.79184082 25.1168457 22.79071289 26.08525391 22.78955078 27.08300781 C22.66015625 29.3203125 22.66015625 29.3203125 21.66015625 30.3203125 C18.859375 30.70703125 18.859375 30.70703125 15.66015625 30.3203125 C13.4296875 28.08984375 13.4296875 28.08984375 11.47265625 25.1328125 C10.49232422 23.68841797 10.49232422 23.68841797 9.4921875 22.21484375 C7.84214021 19.6078394 6.24753431 16.9659426 4.66015625 14.3203125 C4.33015625 19.6003125 4.00015625 24.8803125 3.66015625 30.3203125 C1.35015625 30.3203125 -0.95984375 30.3203125 -3.33984375 30.3203125 C-3.36450121 26.2085869 -3.38268334 22.09688972 -3.39477539 17.98510742 C-3.39981455 16.58536022 -3.40664591 15.1856183 -3.4152832 13.78588867 C-3.42736695 11.77785473 -3.43254182 9.76978293 -3.4375 7.76171875 C-3.44273682 6.55201416 -3.44797363 5.34230957 -3.45336914 4.09594727 C-3.30434338 0.45234751 -3.30434338 0.45234751 0 0 Z " fill="#030303" transform="translate(458.33984375,818.6796875)"/>
<path d="M0 0 C3.20638896 2.17066951 4.79824848 3.92202462 5.6875 7.8125 C4.429375 7.85375 3.17125 7.895 1.875 7.9375 C1.16730469 7.96070313 0.45960938 7.98390625 -0.26953125 8.0078125 C-2.3125 7.8125 -2.3125 7.8125 -5.3125 5.8125 C-9.38740752 5.47292437 -10.84251271 5.49917514 -14.3125 7.8125 C-15.3124066 11.59786068 -15.6069136 13.9660609 -14.3125 17.6875 C-12.366183 20.10554746 -12.366183 20.10554746 -8.875 20.875 C-5.25849773 21.17291123 -5.25849773 21.17291123 -2.875 18.875 C-2.1015625 17.8540625 -2.1015625 17.8540625 -1.3125 16.8125 C-2.611875 16.833125 -3.91125 16.85375 -5.25 16.875 C-6.60415633 16.89649454 -7.96006083 16.88398199 -9.3125 16.8125 C-9.6425 16.4825 -9.9725 16.1525 -10.3125 15.8125 C-10.3125 14.1625 -10.3125 12.5125 -10.3125 10.8125 C-5.0325 10.8125 0.2475 10.8125 5.6875 10.8125 C6.35714286 19.65178571 6.35714286 19.65178571 3.4375 23.25 C-0.87864483 27.27186223 -4.10710817 28.34693343 -9.9296875 28.18359375 C-14.15516192 27.52552806 -17.25224875 25.77241514 -20.3125 22.8125 C-23.14443993 18.48618134 -23.92894088 13.83624206 -23.01953125 8.76953125 C-21.3504052 4.14946411 -18.04652975 0.83513293 -13.875 -1.625 C-8.5239306 -2.79962499 -4.77585891 -2.75131002 0 0 Z " fill="#010101" transform="translate(381.3125,821.1875)"/>
<path d="M0 0 C3.03225391 1.95411919 4.8176793 3.82026895 6.8125 6.8125 C6.8125 7.4725 6.8125 8.1325 6.8125 8.8125 C0.1875 9.0625 0.1875 9.0625 -3.1875 6.8125 C-7.8130656 6.379772 -7.8130656 6.379772 -12.125 7.8125 C-13.8442088 11.04865773 -13.72508847 14.23604336 -13.1875 17.8125 C-12.20701062 19.87652685 -12.20701062 19.87652685 -10.1875 20.8125 C-6.5318465 21.74585834 -3.77582708 22.05461322 -0.1875 20.8125 C-0.1875 20.1525 -0.1875 19.4925 -0.1875 18.8125 C-2.8275 18.4825 -5.4675 18.1525 -8.1875 17.8125 C-8.1875 15.8325 -8.1875 13.8525 -8.1875 11.8125 C-2.9075 11.8125 2.3725 11.8125 7.8125 11.8125 C7.8125 20.84220297 7.8125 20.84220297 5.0625 23.6875 C4.55203125 24.24179687 4.0415625 24.79609375 3.515625 25.3671875 C-0.44818468 28.73097094 -3.86337925 29.24965081 -8.9375 29.1328125 C-13.36753397 28.50214794 -16.13423849 26.01103896 -19 22.75 C-21.50596971 18.66131258 -21.78807335 14.47981293 -21.1875 9.8125 C-19.78192493 5.61270943 -17.6008726 2.76660742 -13.875 0.375 C-9.06032657 -2.01176119 -5.01466861 -1.86820987 0 0 Z " fill="#020202" transform="translate(532.1875,820.1875)"/>
<path d="M0 0 C2.5 0.125 2.5 0.125 3.5 1.125 C3.57226502 2.97787502 3.5838122 4.83333878 3.5625 6.6875 C3.55347656 7.69941406 3.54445313 8.71132813 3.53515625 9.75390625 C3.52355469 10.53636719 3.51195312 11.31882812 3.5 12.125 C6.8 12.125 10.1 12.125 13.5 12.125 C13.5 8.495 13.5 4.865 13.5 1.125 C19.25 0 19.25 0 21.5 1.125 C21.52465881 5.09430989 21.54284023 9.06359034 21.55493164 13.03295898 C21.55997057 14.38420386 21.56680177 15.73544326 21.57543945 17.08666992 C21.58752419 19.02520434 21.59269828 20.963778 21.59765625 22.90234375 C21.60551147 24.65405884 21.60551147 24.65405884 21.61352539 26.44116211 C21.5 29.125 21.5 29.125 20.5 30.125 C17.5 30.25 17.5 30.25 14.5 30.125 C13.5 29.125 13.5 29.125 13.40234375 26.62109375 C13.41974609 25.10708984 13.41974609 25.10708984 13.4375 23.5625 C13.44652344 22.55058594 13.45554687 21.53867187 13.46484375 20.49609375 C13.47644531 19.71363281 13.48804688 18.93117188 13.5 18.125 C10.2 18.125 6.9 18.125 3.5 18.125 C3.5 22.085 3.5 26.045 3.5 30.125 C1.19 30.125 -1.12 30.125 -3.5 30.125 C-3.52465746 26.0132744 -3.54283959 21.90157722 -3.55493164 17.78979492 C-3.5599708 16.39004772 -3.56680216 14.9903058 -3.57543945 13.59057617 C-3.5875232 11.58254223 -3.59269807 9.57447043 -3.59765625 7.56640625 C-3.60289307 6.35670166 -3.60812988 5.14699707 -3.61352539 3.90063477 C-3.46106472 0.17305324 -3.46106472 0.17305324 0 0 Z " fill="#040404" transform="translate(705.5,818.875)"/>
<path d="M0 0 C3.86849672 2.40706462 6.14773555 4.35716021 8.125 8.5 C9.19892203 13.57672232 8.64585438 17.71291152 6.6875 22.5 C3.59745612 26.20805265 0.28583777 28.32415576 -4.43359375 29.13671875 C-9.81343013 29.39981362 -13.05117854 28.40535385 -17.1875 24.75 C-21.12266831 20.40060345 -21.8309461 16.83177745 -21.56640625 11.1484375 C-20.88297923 6.82241495 -19.00827908 4.19220125 -15.609375 1.5 C-10.40554041 -1.87546027 -5.86021219 -2.29812243 0 0 Z M-13.1875 7.75 C-14.80249021 10.97998043 -14.76726204 14.25809992 -14.1875 17.75 C-12.3110883 20.96013047 -12.3110883 20.96013047 -9.1875 22.75 C-5.69300943 22.75 -3.35159299 22.6122911 -0.5 20.5 C1.25037622 18.16616504 1.21333094 16.64306558 1.1875 13.75 C1.19523438 12.88375 1.20296875 12.0175 1.2109375 11.125 C0.73942558 8.31441916 0.04602577 7.46147276 -2.1875 5.75 C-6.6929545 4.04523343 -9.19382124 5.29933349 -13.1875 7.75 Z " fill="#020202" transform="translate(581.1875,820.25)"/>
<path d="M0 0 C3.41947524 2.23009255 6.16885197 4.12730731 7.875 7.875 C8.79691177 14.29359328 8.79619744 19.51787111 4.875 24.875 C0.2691666 28.28331671 -3.23817196 29.55098612 -8.984375 29.2578125 C-13.72621024 28.40982007 -16.37344885 25.7056618 -19.5 22.25 C-21.70613052 17.66803661 -21.91466018 13.87346754 -21.125 8.875 C-17.0804593 0.13879209 -9.09890332 -3.2756052 0 0 Z M-13.125 7.875 C-14.73999021 11.10498043 -14.70476204 14.38309992 -14.125 17.875 C-12.2485883 21.08513047 -12.2485883 21.08513047 -9.125 22.875 C-5.63417733 22.875 -3.28959311 22.74640883 -0.44921875 20.62109375 C1.7786289 17.68348932 1.45968341 14.83136085 1.37109375 11.26171875 C1.04299308 8.51367556 1.04299308 8.51367556 -2 6.25 C-6.84560761 4.11793265 -8.5812895 5.36145802 -13.125 7.875 Z " fill="#020202" transform="translate(330.125,820.125)"/>
<path d="M0 0 C2.45622816 0.03851745 4.86459438 0.14533713 7.3125 0.3125 C7.98990234 0.34794922 8.66730469 0.38339844 9.36523438 0.41992188 C12.98563832 0.65703533 15.98155919 0.89927991 19 3 C21.51250583 6.76875875 21.53016086 8.53150134 21 13 C19.54006686 15.32978877 17.93880985 17.0127199 16 19 C16.3609375 19.54269531 16.721875 20.08539062 17.09375 20.64453125 C17.5578125 21.35996094 18.021875 22.07539062 18.5 22.8125 C18.9640625 23.52019531 19.428125 24.22789062 19.90625 24.95703125 C21 27 21 27 21 30 C17.875 30.625 17.875 30.625 14 30 C12.0678912 27.55324371 10.68435534 25.05637438 9.26171875 22.28515625 C8.20899098 19.86831165 8.20899098 19.86831165 6 19 C6 22.63 6 26.26 6 30 C3.69 30 1.38 30 -1 30 C-1.02465746 25.8882744 -1.04283959 21.77657722 -1.05493164 17.66479492 C-1.0599708 16.26504772 -1.06680216 14.8653058 -1.07543945 13.46557617 C-1.0875232 11.45754223 -1.09269807 9.44947043 -1.09765625 7.44140625 C-1.10289307 6.23170166 -1.10812988 5.02199707 -1.11352539 3.77563477 C-1 1 -1 1 0 0 Z M6 6 C6 8.31 6 10.62 6 13 C8.31 13 10.62 13 13 13 C13.33 11.35 13.66 9.7 14 8 C10.77208445 5.8480563 9.71599191 5.79913557 6 6 Z " fill="#020202" transform="translate(789,819)"/>
<path d="M0 0 C0.94875 0.04125 1.8975 0.0825 2.875 0.125 C7.0170489 9.63705035 10.49505381 19.32199457 13.875 29.125 C12.875 30.125 12.875 30.125 9.3125 30.1875 C8.178125 30.166875 7.04375 30.14625 5.875 30.125 C5.545 28.145 5.215 26.165 4.875 24.125 C-0.075 24.62 -0.075 24.62 -5.125 25.125 C-6.115 27.6 -6.115 27.6 -7.125 30.125 C-9.435 30.125 -11.745 30.125 -14.125 30.125 C-13.08513915 24.3512591 -11.11202104 18.96581441 -9.1875 13.4375 C-8.82720703 12.37982422 -8.46691406 11.32214844 -8.09570312 10.23242188 C-7.74572266 9.22373047 -7.39574219 8.21503906 -7.03515625 7.17578125 C-6.71683838 6.25450439 -6.39852051 5.33322754 -6.07055664 4.3840332 C-4.60098356 0.87307019 -3.86388496 0.1545554 0 0 Z M-1.125 10.125 C-2.62321059 13.49597383 -3.125 15.32942119 -3.125 19.125 C-1.145 19.125 0.835 19.125 2.875 19.125 C1.885 16.155 0.895 13.185 -0.125 10.125 C-0.455 10.125 -0.785 10.125 -1.125 10.125 Z " fill="#030303" transform="translate(421.125,818.875)"/>
<path d="M0 0 C2.87305972 1.40460697 4.74510999 2.74510999 7 5 C7.125 7.625 7.125 7.625 7 10 C4.125 10.1875 4.125 10.1875 1 10 C0.34 9.01 -0.32 8.02 -1 7 C-2.32 7 -3.64 7 -5 7 C-5.33 8.32 -5.66 9.64 -6 11 C-5.39671875 11.09796875 -4.7934375 11.1959375 -4.171875 11.296875 C-0.45804073 11.99172141 2.37410598 12.56187419 5.5 14.75 C7.4160576 17.6240864 7.92946278 19.543676 8 23 C6.39588152 26.52906067 5.25840638 27.82772908 2 30 C-2.21130082 30.6072475 -5.96409995 30.39672768 -9.9375 28.875 C-12.54949495 26.50045913 -13.17209495 24.3868843 -14 21 C-13 20 -13 20 -10.0625 19.75 C-9.051875 19.8325 -8.04125 19.915 -7 20 C-6.34 20.99 -5.68 21.98 -5 23 C-2.41619823 23.25030977 -2.41619823 23.25030977 0 23 C0 22.01 0 21.02 0 20 C-0.67546875 19.76925781 -1.3509375 19.53851562 -2.046875 19.30078125 C-11.59504863 15.80990274 -11.59504863 15.80990274 -14 11 C-14 7.2351198 -13.48426973 5.57799935 -11.0625 2.6875 C-7.34809132 -0.35156164 -4.77255112 -0.32356279 0 0 Z " fill="#020202" transform="translate(663,819)"/>
<path d="M0 0 C3.36056438 2.2912939 3.88354363 3.97594634 4.75 7.875 C3.75 8.875 3.75 8.875 0.8125 9.125 C-0.198125 9.0425 -1.20875 8.96 -2.25 8.875 C-2.91 7.885 -3.57 6.895 -4.25 5.875 C-5.57 5.875 -6.89 5.875 -8.25 5.875 C-8.58 7.195 -8.91 8.515 -9.25 9.875 C-8.36248047 10.00455078 -8.36248047 10.00455078 -7.45703125 10.13671875 C-2.00531142 11.10611102 1.40849702 12.13222157 4.75 16.875 C5.375 19.875 5.375 19.875 4.75 22.875 C2.3125 25.6875 2.3125 25.6875 -0.25 27.875 C-0.58 28.205 -0.91 28.535 -1.25 28.875 C-3.17578125 29.04296875 -3.17578125 29.04296875 -5.5625 29.0625 C-6.34238281 29.07667969 -7.12226563 29.09085938 -7.92578125 29.10546875 C-10.52214014 28.84801468 -12.05970546 28.28071142 -14.25 26.875 C-16.4019437 23.64708445 -16.45086443 22.59099191 -16.25 18.875 C-13.375 18.6875 -13.375 18.6875 -10.25 18.875 C-9.59 19.865 -8.93 20.855 -8.25 21.875 C-5.66619823 22.12530977 -5.66619823 22.12530977 -3.25 21.875 C-3.25 20.885 -3.25 19.895 -3.25 18.875 C-3.93707031 18.62105469 -4.62414062 18.36710938 -5.33203125 18.10546875 C-6.23308594 17.76128906 -7.13414062 17.41710937 -8.0625 17.0625 C-8.95582031 16.72605469 -9.84914062 16.38960937 -10.76953125 16.04296875 C-13.23077859 14.88405071 -14.62891084 14.04346992 -16.25 11.875 C-17.02333333 4.915 -17.02333333 4.915 -14.4375 1.4375 C-9.75163834 -1.90954404 -5.3104656 -1.83823809 0 0 Z " fill="#010101" transform="translate(247.25,820.125)"/>
<path d="M0 0 C1.48831242 0.00667405 2.97660807 0.01863442 4.46484375 0.03515625 C5.22345703 0.03966797 5.98207031 0.04417969 6.76367188 0.04882812 C8.64326246 0.06064945 10.52281274 0.07858547 12.40234375 0.09765625 C12.40234375 2.07765625 12.40234375 4.05765625 12.40234375 6.09765625 C9.10234375 6.09765625 5.80234375 6.09765625 2.40234375 6.09765625 C2.40234375 8.07765625 2.40234375 10.05765625 2.40234375 12.09765625 C5.37234375 12.09765625 8.34234375 12.09765625 11.40234375 12.09765625 C11.40234375 14.07765625 11.40234375 16.05765625 11.40234375 18.09765625 C8.43234375 18.09765625 5.46234375 18.09765625 2.40234375 18.09765625 C2.40234375 20.07765625 2.40234375 22.05765625 2.40234375 24.09765625 C5.70234375 24.09765625 9.00234375 24.09765625 12.40234375 24.09765625 C12.40234375 26.07765625 12.40234375 28.05765625 12.40234375 30.09765625 C6.79234375 30.09765625 1.18234375 30.09765625 -4.59765625 30.09765625 C-4.62057019 25.98587698 -4.64049576 21.87425967 -4.65258789 17.76245117 C-4.65762705 16.36270397 -4.66445841 14.96296205 -4.6730957 13.56323242 C-4.68517945 11.55519848 -4.69035432 9.54712668 -4.6953125 7.5390625 C-4.70054932 6.32935791 -4.70578613 5.11965332 -4.71118164 3.87329102 C-4.54041331 -0.30190292 -4.31813847 0.11721331 0 0 Z " fill="#090909" transform="translate(836.59765625,818.90234375)"/>
<path d="M0 0 C1.48831242 0.00667405 2.97660807 0.01863442 4.46484375 0.03515625 C5.22345703 0.03966797 5.98207031 0.04417969 6.76367188 0.04882812 C8.64326246 0.06064945 10.52281274 0.07858547 12.40234375 0.09765625 C12.40234375 2.07765625 12.40234375 4.05765625 12.40234375 6.09765625 C9.10234375 6.09765625 5.80234375 6.09765625 2.40234375 6.09765625 C2.40234375 8.07765625 2.40234375 10.05765625 2.40234375 12.09765625 C5.37234375 12.09765625 8.34234375 12.09765625 11.40234375 12.09765625 C11.40234375 14.07765625 11.40234375 16.05765625 11.40234375 18.09765625 C8.43234375 18.09765625 5.46234375 18.09765625 2.40234375 18.09765625 C2.40234375 20.07765625 2.40234375 22.05765625 2.40234375 24.09765625 C5.70234375 24.09765625 9.00234375 24.09765625 12.40234375 24.09765625 C12.40234375 26.07765625 12.40234375 28.05765625 12.40234375 30.09765625 C6.79234375 30.09765625 1.18234375 30.09765625 -4.59765625 30.09765625 C-4.62057019 25.98587698 -4.64049576 21.87425967 -4.65258789 17.76245117 C-4.65762705 16.36270397 -4.66445841 14.96296205 -4.6730957 13.56323242 C-4.68517945 11.55519848 -4.69035432 9.54712668 -4.6953125 7.5390625 C-4.70054932 6.32935791 -4.70578613 5.11965332 -4.71118164 3.87329102 C-4.54041331 -0.30190292 -4.31813847 0.11721331 0 0 Z " fill="#070707" transform="translate(753.59765625,818.90234375)"/>
<path d="M0 0 C2.64590014 -0.02684679 5.29153096 -0.04676357 7.9375 -0.0625 C8.69224609 -0.07087891 9.44699219 -0.07925781 10.22460938 -0.08789062 C12.14994313 -0.09652441 14.07535581 -0.05224333 16 0 C17 1 17 1 17 6 C13.7 6.33 10.4 6.66 7 7 C7 8.65 7 10.3 7 12 C9.97 12 12.94 12 16 12 C16 13.98 16 15.96 16 18 C13.03 18 10.06 18 7 18 C7 19.98 7 21.96 7 24 C10.3 24 13.6 24 17 24 C17 25.98 17 27.96 17 30 C11.39 30 5.78 30 0 30 C-0.16568228 26.04911485 -0.32812298 22.09830816 -0.48217773 18.14697266 C-0.56187238 16.14079929 -0.64712518 14.13484924 -0.73242188 12.12890625 C-0.78076172 10.87207031 -0.82910156 9.61523438 -0.87890625 8.3203125 C-0.9260376 7.15773926 -0.97316895 5.99516602 -1.02172852 4.79736328 C-1 2 -1 2 0 0 Z " fill="#070707" transform="translate(611,819)"/>
<path d="M0 0 C2.31 0 4.62 0 7 0 C7 7.26 7 14.52 7 22 C9.97 22.33 12.94 22.66 16 23 C16 24.98 16 26.96 16 29 C10.72 29 5.44 29 0 29 C0 19.43 0 9.86 0 0 Z " fill="#010101" transform="translate(274,820)"/>
<path d="M0 0 C5.08938811 1.59043379 8.87456643 4.7446951 13 8 C12.67 8.66 12.34 9.32 12 10 C9.525 9.01 9.525 9.01 7 8 C7 7.34 7 6.68 7 6 C3.535 4.02 3.535 4.02 0 2 C0 1.34 0 0.68 0 0 Z " fill="#117AF3" transform="translate(507,625)"/>
</svg>
